<mxfile host="65bd71144e">
    <diagram id="XKSSDiG02hcuoGeKfUXK" name="Page-1">
        <mxGraphModel dx="590" dy="544" grid="1" gridSize="10" guides="1" tooltips="1" connect="1" arrows="1" fold="1" page="1" pageScale="1" pageWidth="850" pageHeight="1100" math="0" shadow="0">
            <root>
                <mxCell id="0"/>
                <mxCell id="1" parent="0"/>
                <mxCell id="2" value="Lanzamiento del proyecto" style="html=1;align=center;verticalAlign=middle;rounded=1;absoluteArcSize=1;arcSize=10;dashed=0;fillColor=none;fontColor=#006EAF;strokeColor=#006EAF;whiteSpace=wrap;" parent="1" vertex="1">
                    <mxGeometry x="160" y="130" width="100" height="50" as="geometry"/>
                </mxCell>
                <mxCell id="3" value="Costos iniciales" style="html=1;dashed=0;whitespace=wrap;fillColor=none;fontColor=#006EAF;strokeColor=#006EAF;whiteSpace=wrap;" parent="1" vertex="1">
                    <mxGeometry x="280" y="40" width="100" height="50" as="geometry"/>
                </mxCell>
                <mxCell id="10" style="edgeStyle=none;html=1;fontColor=#006EAF;endArrow=open;endFill=0;fillColor=#1ba1e2;strokeColor=#006EAF;" parent="1" source="4" target="2" edge="1">
                    <mxGeometry relative="1" as="geometry"/>
                </mxCell>
                <mxCell id="4" value="Plan estratégico del producto" style="html=1;dashed=0;whitespace=wrap;fillColor=none;fontColor=#006EAF;strokeColor=#006EAF;whiteSpace=wrap;" parent="1" vertex="1">
                    <mxGeometry x="40" y="40" width="100" height="50" as="geometry"/>
                </mxCell>
                <mxCell id="5" value="Necesidades del negocio" style="html=1;dashed=0;whitespace=wrap;fillColor=none;fontColor=#006EAF;strokeColor=#006EAF;whiteSpace=wrap;spacingLeft=4;spacingRight=4;" parent="1" vertex="1">
                    <mxGeometry x="160" y="40" width="100" height="50" as="geometry"/>
                </mxCell>
                <mxCell id="6" value="Dueño" style="shape=umlActor;verticalLabelPosition=bottom;verticalAlign=top;html=1;outlineConnect=0;fillColor=none;fontColor=#006EAF;strokeColor=#006EAF;" parent="1" vertex="1">
                    <mxGeometry x="450" y="35" width="30" height="60" as="geometry"/>
                </mxCell>
                <mxCell id="7" value="" style="endArrow=open;html=1;rounded=0;align=center;verticalAlign=bottom;dashed=1;endFill=0;labelBackgroundColor=none;exitX=0.5;exitY=0.5;exitDx=0;exitDy=0;exitPerimeter=0;fillColor=#1ba1e2;strokeColor=#006EAF;" parent="1" source="6" target="3" edge="1">
                    <mxGeometry relative="1" as="geometry">
                        <mxPoint x="250" y="200" as="sourcePoint"/>
                        <mxPoint x="410" y="200" as="targetPoint"/>
                    </mxGeometry>
                </mxCell>
                <mxCell id="8" value="" style="resizable=0;html=1;align=center;verticalAlign=top;labelBackgroundColor=none;" parent="7" connectable="0" vertex="1">
                    <mxGeometry relative="1" as="geometry"/>
                </mxCell>
                <mxCell id="11" style="edgeStyle=none;html=1;fontColor=#006EAF;endArrow=open;endFill=0;fillColor=#1ba1e2;strokeColor=#006EAF;" parent="1" source="5" target="2" edge="1">
                    <mxGeometry relative="1" as="geometry">
                        <mxPoint x="137.5" y="100" as="sourcePoint"/>
                        <mxPoint x="182.5" y="130" as="targetPoint"/>
                    </mxGeometry>
                </mxCell>
                <mxCell id="12" style="edgeStyle=none;html=1;fontColor=#006EAF;endArrow=open;endFill=0;fillColor=#1ba1e2;strokeColor=#006EAF;" parent="1" source="2" target="3" edge="1">
                    <mxGeometry relative="1" as="geometry">
                        <mxPoint x="147.5" y="110" as="sourcePoint"/>
                        <mxPoint x="192.5" y="140" as="targetPoint"/>
                    </mxGeometry>
                </mxCell>
                <mxCell id="13" style="edgeStyle=none;html=1;fontColor=#006EAF;endArrow=open;endFill=0;fillColor=#1ba1e2;strokeColor=#006EAF;" parent="1" source="43" target="41" edge="1">
                    <mxGeometry relative="1" as="geometry">
                        <mxPoint x="67.5" y="520" as="sourcePoint"/>
                        <mxPoint x="112.5" y="550" as="targetPoint"/>
                    </mxGeometry>
                </mxCell>
                <mxCell id="16" value="Objetivos del proyecto" style="html=1;dashed=0;whitespace=wrap;fillColor=none;fontColor=#006EAF;strokeColor=#006EAF;whiteSpace=wrap;" parent="1" vertex="1">
                    <mxGeometry x="220" y="220" width="100" height="50" as="geometry"/>
                </mxCell>
                <mxCell id="17" value="Alcance del trabajo" style="html=1;dashed=0;whitespace=wrap;fillColor=none;fontColor=#006EAF;strokeColor=#006EAF;whiteSpace=wrap;" parent="1" vertex="1">
                    <mxGeometry x="100" y="220" width="100" height="50" as="geometry"/>
                </mxCell>
                <mxCell id="19" style="edgeStyle=none;html=1;fontColor=#006EAF;endArrow=open;endFill=0;fillColor=#1ba1e2;strokeColor=#006EAF;" parent="1" source="2" target="17" edge="1">
                    <mxGeometry relative="1" as="geometry">
                        <mxPoint x="77.5" y="500" as="sourcePoint"/>
                        <mxPoint x="122.5" y="530" as="targetPoint"/>
                    </mxGeometry>
                </mxCell>
                <mxCell id="20" style="edgeStyle=none;html=1;fontColor=#006EAF;endArrow=open;endFill=0;fillColor=#1ba1e2;strokeColor=#006EAF;" parent="1" source="2" target="16" edge="1">
                    <mxGeometry relative="1" as="geometry">
                        <mxPoint x="201.25" y="190" as="sourcePoint"/>
                        <mxPoint x="178.75" y="220" as="targetPoint"/>
                    </mxGeometry>
                </mxCell>
                <mxCell id="21" value="Relevar el conocimiento" style="html=1;align=center;verticalAlign=middle;rounded=1;absoluteArcSize=1;arcSize=10;dashed=0;fillColor=none;fontColor=#006EAF;strokeColor=#006EAF;whiteSpace=wrap;" parent="1" vertex="1">
                    <mxGeometry x="280" y="306" width="100" height="50" as="geometry"/>
                </mxCell>
                <mxCell id="22" value="Conocimiento del dominio" style="html=1;dashed=0;whitespace=wrap;fillColor=none;fontColor=#006EAF;strokeColor=#006EAF;whiteSpace=wrap;" parent="1" vertex="1">
                    <mxGeometry x="340" y="220" width="100" height="50" as="geometry"/>
                </mxCell>
                <mxCell id="23" value="Requerimientos reutilizables" style="html=1;dashed=0;whitespace=wrap;fillColor=none;fontColor=#006EAF;strokeColor=#006EAF;whiteSpace=wrap;" parent="1" vertex="1">
                    <mxGeometry x="460" y="220" width="100" height="50" as="geometry"/>
                </mxCell>
                <mxCell id="24" style="edgeStyle=none;html=1;fontColor=#006EAF;endArrow=open;endFill=0;fillColor=#1ba1e2;strokeColor=#006EAF;" parent="1" source="17" target="21" edge="1">
                    <mxGeometry relative="1" as="geometry">
                        <mxPoint x="77.5" y="510" as="sourcePoint"/>
                        <mxPoint x="122.5" y="540" as="targetPoint"/>
                    </mxGeometry>
                </mxCell>
                <mxCell id="25" style="edgeStyle=none;html=1;fontColor=#006EAF;endArrow=open;endFill=0;fillColor=#1ba1e2;strokeColor=#006EAF;" parent="1" source="16" target="21" edge="1">
                    <mxGeometry relative="1" as="geometry">
                        <mxPoint x="87.5" y="520" as="sourcePoint"/>
                        <mxPoint x="132.5" y="550" as="targetPoint"/>
                    </mxGeometry>
                </mxCell>
                <mxCell id="26" style="edgeStyle=none;html=1;fontColor=#006EAF;endArrow=open;endFill=0;fillColor=#1ba1e2;strokeColor=#006EAF;" parent="1" source="22" target="21" edge="1">
                    <mxGeometry relative="1" as="geometry">
                        <mxPoint x="298.75" y="280" as="sourcePoint"/>
                        <mxPoint x="321.25" y="310" as="targetPoint"/>
                    </mxGeometry>
                </mxCell>
                <mxCell id="27" style="edgeStyle=none;html=1;fontColor=#006EAF;endArrow=open;endFill=0;fillColor=#1ba1e2;strokeColor=#006EAF;" parent="1" source="23" target="21" edge="1">
                    <mxGeometry relative="1" as="geometry">
                        <mxPoint x="381.25" y="280" as="sourcePoint"/>
                        <mxPoint x="358.75" y="310" as="targetPoint"/>
                    </mxGeometry>
                </mxCell>
                <mxCell id="29" value="Deseos y necesidades" style="html=1;dashed=0;whitespace=wrap;fillColor=none;fontColor=#006EAF;strokeColor=#006EAF;whiteSpace=wrap;" parent="1" vertex="1">
                    <mxGeometry x="140" y="306" width="100" height="50" as="geometry"/>
                </mxCell>
                <mxCell id="30" value="Interesados" style="shape=umlActor;verticalLabelPosition=bottom;verticalAlign=top;html=1;outlineConnect=0;fillColor=none;fontColor=#006EAF;strokeColor=#006EAF;" parent="1" vertex="1">
                    <mxGeometry x="20" y="300" width="30" height="60" as="geometry"/>
                </mxCell>
                <mxCell id="31" value="" style="endArrow=open;html=1;rounded=0;align=center;verticalAlign=bottom;dashed=1;endFill=0;labelBackgroundColor=none;exitX=0.5;exitY=0.5;exitDx=0;exitDy=0;exitPerimeter=0;fillColor=#1ba1e2;strokeColor=#006EAF;" parent="1" source="30" target="29" edge="1">
                    <mxGeometry relative="1" as="geometry">
                        <mxPoint x="475" y="101" as="sourcePoint"/>
                        <mxPoint x="390" y="101" as="targetPoint"/>
                    </mxGeometry>
                </mxCell>
                <mxCell id="32" value="" style="resizable=0;html=1;align=center;verticalAlign=top;labelBackgroundColor=none;" parent="31" connectable="0" vertex="1">
                    <mxGeometry relative="1" as="geometry"/>
                </mxCell>
                <mxCell id="33" style="edgeStyle=none;html=1;fontColor=#006EAF;endArrow=open;endFill=0;fillColor=#1ba1e2;strokeColor=#006EAF;" parent="1" source="29" target="21" edge="1">
                    <mxGeometry relative="1" as="geometry">
                        <mxPoint x="210" y="283.2222222222222" as="sourcePoint"/>
                        <mxPoint x="290" y="318.7777777777777" as="targetPoint"/>
                    </mxGeometry>
                </mxCell>
                <mxCell id="34" value="Requerimientos para experimentar" style="html=1;dashed=0;whitespace=wrap;fillColor=none;fontColor=#006EAF;strokeColor=#006EAF;whiteSpace=wrap;spacingLeft=4;spacingRight=4;" parent="1" vertex="1">
                    <mxGeometry x="425" y="306" width="100" height="50" as="geometry"/>
                </mxCell>
                <mxCell id="35" style="edgeStyle=none;html=1;fontColor=#006EAF;endArrow=open;endFill=0;fillColor=#1ba1e2;strokeColor=#006EAF;" parent="1" source="21" target="34" edge="1">
                    <mxGeometry relative="1" as="geometry">
                        <mxPoint x="77.5" y="516" as="sourcePoint"/>
                        <mxPoint x="122.5" y="546" as="targetPoint"/>
                    </mxGeometry>
                </mxCell>
                <mxCell id="36" value="Prototipar el trabajo" style="html=1;align=center;verticalAlign=middle;rounded=1;absoluteArcSize=1;arcSize=10;dashed=0;fillColor=none;fontColor=#006EAF;strokeColor=#006EAF;whiteSpace=wrap;" parent="1" vertex="1">
                    <mxGeometry x="580" y="305" width="100" height="50" as="geometry"/>
                </mxCell>
                <mxCell id="37" style="edgeStyle=none;html=1;fontColor=#006EAF;endArrow=open;endFill=0;fillColor=#1ba1e2;strokeColor=#006EAF;" parent="1" source="34" target="36" edge="1">
                    <mxGeometry relative="1" as="geometry">
                        <mxPoint x="355" y="341" as="sourcePoint"/>
                        <mxPoint x="435" y="341" as="targetPoint"/>
                    </mxGeometry>
                </mxCell>
                <mxCell id="38" value="Requerimientos potenciales" style="html=1;dashed=0;whitespace=wrap;fillColor=none;fontColor=#006EAF;strokeColor=#006EAF;whiteSpace=wrap;spacingLeft=4;spacingRight=4;" parent="1" vertex="1">
                    <mxGeometry x="425" y="400" width="100" height="50" as="geometry"/>
                </mxCell>
                <mxCell id="39" style="edgeStyle=none;html=1;fontColor=#006EAF;endArrow=open;endFill=0;fillColor=#1ba1e2;strokeColor=#006EAF;" parent="1" source="21" target="38" edge="1">
                    <mxGeometry relative="1" as="geometry">
                        <mxPoint x="390" y="341" as="sourcePoint"/>
                        <mxPoint x="470" y="341" as="targetPoint"/>
                    </mxGeometry>
                </mxCell>
                <mxCell id="40" style="edgeStyle=none;html=1;fontColor=#006EAF;endArrow=open;endFill=0;fillColor=#1ba1e2;strokeColor=#006EAF;" parent="1" source="36" target="38" edge="1">
                    <mxGeometry relative="1" as="geometry">
                        <mxPoint x="355" y="363.2222222222222" as="sourcePoint"/>
                        <mxPoint x="435" y="398.7777777777777" as="targetPoint"/>
                    </mxGeometry>
                </mxCell>
                <mxCell id="41" value="Escribir el requerimiento" style="html=1;align=center;verticalAlign=middle;rounded=1;absoluteArcSize=1;arcSize=10;dashed=0;fillColor=none;fontColor=#006EAF;strokeColor=#006EAF;whiteSpace=wrap;" parent="1" vertex="1">
                    <mxGeometry x="280" y="400" width="100" height="50" as="geometry"/>
                </mxCell>
                <mxCell id="42" style="edgeStyle=none;html=1;fontColor=#006EAF;endArrow=open;endFill=0;fillColor=#1ba1e2;strokeColor=#006EAF;" parent="1" source="38" target="41" edge="1">
                    <mxGeometry relative="1" as="geometry">
                        <mxPoint x="390" y="377.2222222222222" as="sourcePoint"/>
                        <mxPoint x="470" y="412.7777777777777" as="targetPoint"/>
                    </mxGeometry>
                </mxCell>
                <mxCell id="43" value="Plantilla de requerimiento" style="html=1;dashed=0;whitespace=wrap;fillColor=none;fontColor=#006EAF;strokeColor=#006EAF;whiteSpace=wrap;" parent="1" vertex="1">
                    <mxGeometry x="140" y="400" width="100" height="50" as="geometry"/>
                </mxCell>
                <mxCell id="44" value="Portal de calidad" style="html=1;align=center;verticalAlign=middle;rounded=1;absoluteArcSize=1;arcSize=10;dashed=0;fillColor=none;fontColor=#006EAF;strokeColor=#006EAF;whiteSpace=wrap;" parent="1" vertex="1">
                    <mxGeometry x="280" y="580" width="100" height="50" as="geometry"/>
                </mxCell>
                <mxCell id="45" value="Requerimientos formalizados" style="html=1;dashed=0;whitespace=wrap;fillColor=none;fontColor=#006EAF;strokeColor=#006EAF;whiteSpace=wrap;spacingLeft=4;spacingRight=4;" parent="1" vertex="1">
                    <mxGeometry x="280" y="490" width="100" height="50" as="geometry"/>
                </mxCell>
                <mxCell id="46" style="edgeStyle=none;html=1;fontColor=#006EAF;endArrow=open;endFill=0;fillColor=#1ba1e2;strokeColor=#006EAF;" parent="1" source="41" target="45" edge="1">
                    <mxGeometry relative="1" as="geometry">
                        <mxPoint x="250" y="435" as="sourcePoint"/>
                        <mxPoint x="290" y="435" as="targetPoint"/>
                    </mxGeometry>
                </mxCell>
                <mxCell id="47" style="edgeStyle=none;html=1;fontColor=#006EAF;endArrow=open;endFill=0;fillColor=#1ba1e2;strokeColor=#006EAF;" parent="1" source="45" target="44" edge="1">
                    <mxGeometry relative="1" as="geometry">
                        <mxPoint x="340" y="520" as="sourcePoint"/>
                        <mxPoint x="340" y="500" as="targetPoint"/>
                    </mxGeometry>
                </mxCell>
                <mxCell id="48" value="Requerimientos rechazados" style="html=1;dashed=0;whitespace=wrap;fillColor=none;fontColor=#006EAF;strokeColor=#006EAF;whiteSpace=wrap;spacingLeft=4;spacingRight=4;" parent="1" vertex="1">
                    <mxGeometry x="140" y="580" width="100" height="50" as="geometry"/>
                </mxCell>
                <mxCell id="49" style="edgeStyle=none;html=1;fontColor=#006EAF;endArrow=open;endFill=0;fillColor=#1ba1e2;strokeColor=#006EAF;" parent="1" source="44" target="48" edge="1">
                    <mxGeometry relative="1" as="geometry">
                        <mxPoint x="340" y="560" as="sourcePoint"/>
                        <mxPoint x="340" y="590" as="targetPoint"/>
                    </mxGeometry>
                </mxCell>
                <mxCell id="50" value="" style="endArrow=open;html=1;rounded=1;align=center;verticalAlign=bottom;dashed=1;endFill=0;labelBackgroundColor=none;fillColor=#1ba1e2;strokeColor=#006EAF;" parent="1" source="48" target="30" edge="1">
                    <mxGeometry relative="1" as="geometry">
                        <mxPoint x="195" y="666" as="sourcePoint"/>
                        <mxPoint x="110" y="666" as="targetPoint"/>
                        <Array as="points">
                            <mxPoint x="35" y="605"/>
                        </Array>
                    </mxGeometry>
                </mxCell>
                <mxCell id="51" value="" style="resizable=0;html=1;align=center;verticalAlign=top;labelBackgroundColor=none;" parent="50" connectable="0" vertex="1">
                    <mxGeometry relative="1" as="geometry"/>
                </mxCell>
                <mxCell id="52" value="Plan estratégico del producto" style="html=1;dashed=0;whitespace=wrap;fillColor=none;fontColor=#006EAF;strokeColor=#006EAF;whiteSpace=wrap;" parent="1" vertex="1">
                    <mxGeometry x="280" y="670" width="100" height="50" as="geometry"/>
                </mxCell>
                <mxCell id="53" style="edgeStyle=none;html=1;fontColor=#006EAF;endArrow=open;endFill=0;fillColor=#1ba1e2;strokeColor=#006EAF;" parent="1" source="52" target="44" edge="1">
                    <mxGeometry relative="1" as="geometry">
                        <mxPoint x="290" y="615" as="sourcePoint"/>
                        <mxPoint x="320" y="620" as="targetPoint"/>
                    </mxGeometry>
                </mxCell>
                <mxCell id="54" value="Requerimientos aceptados" style="html=1;dashed=0;whitespace=wrap;fillColor=none;fontColor=#006EAF;strokeColor=#006EAF;whiteSpace=wrap;spacingLeft=4;spacingRight=4;" parent="1" vertex="1">
                    <mxGeometry x="425" y="580" width="100" height="50" as="geometry"/>
                </mxCell>
                <mxCell id="55" style="edgeStyle=none;html=1;fontColor=#006EAF;endArrow=open;endFill=0;fillColor=#1ba1e2;strokeColor=#006EAF;" parent="1" source="44" target="54" edge="1">
                    <mxGeometry relative="1" as="geometry">
                        <mxPoint x="340" y="670" as="sourcePoint"/>
                        <mxPoint x="340" y="640" as="targetPoint"/>
                    </mxGeometry>
                </mxCell>
                <mxCell id="56" value="Biblioteca de reutilización" style="html=1;dashed=0;whitespace=wrap;fillColor=none;fontColor=#006EAF;strokeColor=#006EAF;whiteSpace=wrap;spacingLeft=4;spacingRight=4;" parent="1" vertex="1">
                    <mxGeometry x="425" y="490" width="100" height="50" as="geometry"/>
                </mxCell>
                <mxCell id="57" value="Reutilizar requerimientos" style="html=1;align=center;verticalAlign=middle;rounded=1;absoluteArcSize=1;arcSize=10;dashed=0;fillColor=none;fontColor=#006EAF;strokeColor=#006EAF;whiteSpace=wrap;" parent="1" vertex="1">
                    <mxGeometry x="580" y="490" width="100" height="50" as="geometry"/>
                </mxCell>
                <mxCell id="58" style="edgeStyle=none;html=1;fontColor=#006EAF;endArrow=open;endFill=0;fillColor=#1ba1e2;strokeColor=#006EAF;" parent="1" source="56" target="57" edge="1">
                    <mxGeometry relative="1" as="geometry">
                        <mxPoint x="340" y="680" as="sourcePoint"/>
                        <mxPoint x="340" y="640" as="targetPoint"/>
                    </mxGeometry>
                </mxCell>
                <mxCell id="59" style="edgeStyle=none;html=1;fontColor=#006EAF;endArrow=open;endFill=0;fillColor=#1ba1e2;strokeColor=#006EAF;" parent="1" source="54" target="56" edge="1">
                    <mxGeometry relative="1" as="geometry">
                        <mxPoint x="390" y="615" as="sourcePoint"/>
                        <mxPoint x="435" y="615" as="targetPoint"/>
                    </mxGeometry>
                </mxCell>
                <mxCell id="60" value="Revisar los requerimientos" style="html=1;align=center;verticalAlign=middle;rounded=1;absoluteArcSize=1;arcSize=10;dashed=0;fillColor=none;fontColor=#006EAF;strokeColor=#006EAF;whiteSpace=wrap;" parent="1" vertex="1">
                    <mxGeometry x="580" y="670" width="100" height="50" as="geometry"/>
                </mxCell>
                <mxCell id="61" value="Diseño y desarrollo" style="html=1;align=center;verticalAlign=middle;rounded=1;absoluteArcSize=1;arcSize=10;dashed=0;fillColor=none;fontColor=#006EAF;strokeColor=#006EAF;whiteSpace=wrap;" parent="1" vertex="1">
                    <mxGeometry x="580" y="580" width="100" height="50" as="geometry"/>
                </mxCell>
                <mxCell id="62" style="edgeStyle=none;html=1;fontColor=#006EAF;endArrow=open;endFill=0;fillColor=#1ba1e2;strokeColor=#006EAF;" parent="1" source="54" target="61" edge="1">
                    <mxGeometry relative="1" as="geometry">
                        <mxPoint x="485" y="590" as="sourcePoint"/>
                        <mxPoint x="485" y="550" as="targetPoint"/>
                    </mxGeometry>
                </mxCell>
                <mxCell id="63" style="edgeStyle=none;html=1;fontColor=#006EAF;endArrow=open;endFill=0;fillColor=#1ba1e2;strokeColor=#006EAF;" parent="1" source="54" target="60" edge="1">
                    <mxGeometry relative="1" as="geometry">
                        <mxPoint x="535" y="615" as="sourcePoint"/>
                        <mxPoint x="590" y="615" as="targetPoint"/>
                    </mxGeometry>
                </mxCell>
                <mxCell id="64" value="Interesados y gerentes" style="shape=umlActor;verticalLabelPosition=bottom;verticalAlign=top;html=1;outlineConnect=0;fillColor=none;fontColor=#006EAF;strokeColor=#006EAF;" parent="1" vertex="1">
                    <mxGeometry x="615" y="860" width="30" height="60" as="geometry"/>
                </mxCell>
                <mxCell id="65" value="Especificación revisada" style="html=1;dashed=0;whitespace=wrap;fillColor=none;fontColor=#006EAF;strokeColor=#006EAF;whiteSpace=wrap;" parent="1" vertex="1">
                    <mxGeometry x="580" y="760" width="100" height="50" as="geometry"/>
                </mxCell>
                <mxCell id="66" value="Riesgos y costos" style="html=1;dashed=0;whitespace=wrap;fillColor=none;fontColor=#006EAF;strokeColor=#006EAF;whiteSpace=wrap;spacingLeft=4;spacingRight=4;" parent="1" vertex="1">
                    <mxGeometry x="460" y="760" width="100" height="50" as="geometry"/>
                </mxCell>
                <mxCell id="67" value="Requerimientos faltantes" style="html=1;dashed=0;whitespace=wrap;fillColor=none;fontColor=#006EAF;strokeColor=#006EAF;whiteSpace=wrap;spacingLeft=4;spacingRight=4;" parent="1" vertex="1">
                    <mxGeometry x="700" y="760" width="100" height="50" as="geometry"/>
                </mxCell>
                <mxCell id="69" value="" style="endArrow=open;html=1;rounded=0;align=center;verticalAlign=bottom;dashed=1;endFill=0;labelBackgroundColor=none;fillColor=#1ba1e2;strokeColor=#006EAF;" parent="1" source="64" target="66" edge="1">
                    <mxGeometry relative="1" as="geometry">
                        <mxPoint x="195" y="720" as="sourcePoint"/>
                        <mxPoint x="110" y="720" as="targetPoint"/>
                    </mxGeometry>
                </mxCell>
                <mxCell id="70" value="" style="resizable=0;html=1;align=center;verticalAlign=top;labelBackgroundColor=none;" parent="69" connectable="0" vertex="1">
                    <mxGeometry relative="1" as="geometry"/>
                </mxCell>
                <mxCell id="71" value="" style="endArrow=open;html=1;rounded=0;align=center;verticalAlign=bottom;dashed=1;endFill=0;labelBackgroundColor=none;fillColor=#1ba1e2;strokeColor=#006EAF;exitX=0.5;exitY=0.5;exitDx=0;exitDy=0;exitPerimeter=0;" parent="1" source="64" target="65" edge="1">
                    <mxGeometry relative="1" as="geometry">
                        <mxPoint x="625" y="886.875" as="sourcePoint"/>
                        <mxPoint x="548.5714285714287" y="820" as="targetPoint"/>
                    </mxGeometry>
                </mxCell>
                <mxCell id="72" value="" style="resizable=0;html=1;align=center;verticalAlign=top;labelBackgroundColor=none;" parent="71" connectable="0" vertex="1">
                    <mxGeometry relative="1" as="geometry"/>
                </mxCell>
                <mxCell id="73" value="" style="endArrow=open;html=1;rounded=0;align=center;verticalAlign=bottom;dashed=1;endFill=0;labelBackgroundColor=none;fillColor=#1ba1e2;strokeColor=#006EAF;exitX=0.5;exitY=0.5;exitDx=0;exitDy=0;exitPerimeter=0;" parent="1" source="64" target="67" edge="1">
                    <mxGeometry relative="1" as="geometry">
                        <mxPoint x="640" y="900" as="sourcePoint"/>
                        <mxPoint x="640" y="820" as="targetPoint"/>
                    </mxGeometry>
                </mxCell>
                <mxCell id="74" value="" style="resizable=0;html=1;align=center;verticalAlign=top;labelBackgroundColor=none;" parent="73" connectable="0" vertex="1">
                    <mxGeometry relative="1" as="geometry"/>
                </mxCell>
                <mxCell id="75" style="edgeStyle=none;html=1;fontColor=#006EAF;endArrow=open;endFill=0;fillColor=#1ba1e2;strokeColor=#006EAF;" parent="1" source="60" target="65" edge="1">
                    <mxGeometry relative="1" as="geometry">
                        <mxPoint x="535" y="657.5806451612902" as="sourcePoint"/>
                        <mxPoint x="590" y="682.4193548387098" as="targetPoint"/>
                    </mxGeometry>
                </mxCell>
                <mxCell id="76" style="edgeStyle=none;html=1;fontColor=#006EAF;endArrow=open;endFill=0;fillColor=#1ba1e2;strokeColor=#006EAF;" parent="1" source="60" target="67" edge="1">
                    <mxGeometry relative="1" as="geometry">
                        <mxPoint x="640" y="730" as="sourcePoint"/>
                        <mxPoint x="640" y="770" as="targetPoint"/>
                    </mxGeometry>
                </mxCell>
                <mxCell id="77" style="edgeStyle=none;html=1;fontColor=#006EAF;endArrow=open;endFill=0;fillColor=#1ba1e2;strokeColor=#006EAF;" parent="1" source="60" target="66" edge="1">
                    <mxGeometry relative="1" as="geometry">
                        <mxPoint x="673.3333333333333" y="730" as="sourcePoint"/>
                        <mxPoint x="726.6666666666667" y="770" as="targetPoint"/>
                    </mxGeometry>
                </mxCell>
                <mxCell id="78" value="Arquitectura" style="html=1;dashed=0;whitespace=wrap;fillColor=none;fontColor=#006EAF;strokeColor=#006EAF;whiteSpace=wrap;spacingLeft=4;spacingRight=4;" parent="1" vertex="1">
                    <mxGeometry x="730" y="580" width="100" height="50" as="geometry"/>
                </mxCell>
                <mxCell id="79" style="edgeStyle=none;html=1;fontColor=#006EAF;endArrow=open;endFill=0;fillColor=#1ba1e2;strokeColor=#006EAF;" parent="1" source="78" target="61" edge="1">
                    <mxGeometry relative="1" as="geometry">
                        <mxPoint x="535" y="615" as="sourcePoint"/>
                        <mxPoint x="590" y="615" as="targetPoint"/>
                    </mxGeometry>
                </mxCell>
                <mxCell id="80" value="Producto" style="html=1;dashed=0;whitespace=wrap;fillColor=none;fontColor=#006EAF;strokeColor=#006EAF;whiteSpace=wrap;spacingLeft=4;spacingRight=4;" parent="1" vertex="1">
                    <mxGeometry x="730" y="490" width="100" height="50" as="geometry"/>
                </mxCell>
                <mxCell id="81" style="edgeStyle=none;html=1;fontColor=#006EAF;endArrow=open;endFill=0;fillColor=#1ba1e2;strokeColor=#006EAF;" parent="1" source="61" target="80" edge="1">
                    <mxGeometry relative="1" as="geometry">
                        <mxPoint x="740" y="615" as="sourcePoint"/>
                        <mxPoint x="690" y="615" as="targetPoint"/>
                    </mxGeometry>
                </mxCell>
                <mxCell id="82" value="Uso y evolución del producto" style="html=1;align=center;verticalAlign=middle;rounded=1;absoluteArcSize=1;arcSize=10;dashed=0;fillColor=none;fontColor=#006EAF;strokeColor=#006EAF;whiteSpace=wrap;" parent="1" vertex="1">
                    <mxGeometry x="730" y="400" width="100" height="50" as="geometry"/>
                </mxCell>
                <mxCell id="83" style="edgeStyle=none;html=1;fontColor=#006EAF;endArrow=open;endFill=0;fillColor=#1ba1e2;strokeColor=#006EAF;" parent="1" source="80" target="82" edge="1">
                    <mxGeometry relative="1" as="geometry">
                        <mxPoint x="681.6666666666667" y="590" as="sourcePoint"/>
                        <mxPoint x="748.3333333333333" y="550" as="targetPoint"/>
                    </mxGeometry>
                </mxCell>
                <mxCell id="84" value="Nuevas necesidades" style="html=1;dashed=0;whitespace=wrap;fillColor=none;fontColor=#006EAF;strokeColor=#006EAF;whiteSpace=wrap;" parent="1" vertex="1">
                    <mxGeometry x="730" y="305" width="100" height="50" as="geometry"/>
                </mxCell>
                <mxCell id="85" style="edgeStyle=none;html=1;fontColor=#006EAF;endArrow=open;endFill=0;fillColor=#1ba1e2;strokeColor=#006EAF;" parent="1" source="82" target="84" edge="1">
                    <mxGeometry relative="1" as="geometry">
                        <mxPoint x="790" y="500" as="sourcePoint"/>
                        <mxPoint x="790" y="460" as="targetPoint"/>
                    </mxGeometry>
                </mxCell>
                <mxCell id="86" value="" style="endArrow=open;html=1;rounded=1;align=center;verticalAlign=bottom;dashed=1;endFill=0;labelBackgroundColor=none;fillColor=#1ba1e2;strokeColor=#006EAF;entryX=0.5;entryY=0.5;entryDx=0;entryDy=0;entryPerimeter=0;" parent="1" source="84" target="6" edge="1">
                    <mxGeometry relative="1" as="geometry">
                        <mxPoint x="475" y="75" as="sourcePoint"/>
                        <mxPoint x="390" y="75" as="targetPoint"/>
                        <Array as="points">
                            <mxPoint x="780" y="65"/>
                        </Array>
                    </mxGeometry>
                </mxCell>
                <mxCell id="87" value="" style="resizable=0;html=1;align=center;verticalAlign=top;labelBackgroundColor=none;" parent="86" connectable="0" vertex="1">
                    <mxGeometry relative="1" as="geometry"/>
                </mxCell>
            </root>
        </mxGraphModel>
    </diagram>
</mxfile>